<mxfile host="www.draw.io" modified="2023-04-11T18:42:30.333Z" agent="Mozilla/5.0 (Windows NT 10.0; Win64; x64) AppleWebKit/537.36 (KHTML, like Gecko) Chrome/112.0.0.0 Safari/537.36" etag="TChkvkUNTh98ZAxfUzlD" version="21.1.6" type="device">
  <diagram name="Страница 1" id="cNqBR7MsXngXiQx99MdX">
    <mxGraphModel dx="1257" dy="646" grid="1" gridSize="10" guides="1" tooltips="1" connect="1" arrows="1" fold="1" page="1" pageScale="1" pageWidth="827" pageHeight="1169" math="0" shadow="0">
      <root>
        <mxCell id="0" />
        <mxCell id="1" parent="0" />
        <mxCell id="rzrUxhMFMnh_a6Wk_pd3-3" style="edgeStyle=orthogonalEdgeStyle;rounded=0;orthogonalLoop=1;jettySize=auto;html=1;" parent="1" source="rzrUxhMFMnh_a6Wk_pd3-1" edge="1">
          <mxGeometry relative="1" as="geometry">
            <mxPoint x="370" y="120" as="targetPoint" />
          </mxGeometry>
        </mxCell>
        <mxCell id="rzrUxhMFMnh_a6Wk_pd3-1" value="Start" style="rounded=1;whiteSpace=wrap;html=1;" parent="1" vertex="1">
          <mxGeometry x="310" width="120" height="60" as="geometry" />
        </mxCell>
        <mxCell id="rzrUxhMFMnh_a6Wk_pd3-9" style="edgeStyle=orthogonalEdgeStyle;rounded=0;orthogonalLoop=1;jettySize=auto;html=1;entryX=0.5;entryY=0;entryDx=0;entryDy=0;" parent="1" source="rzrUxhMFMnh_a6Wk_pd3-2" target="rzrUxhMFMnh_a6Wk_pd3-8" edge="1">
          <mxGeometry relative="1" as="geometry" />
        </mxCell>
        <mxCell id="rzrUxhMFMnh_a6Wk_pd3-2" value="&lt;div style=&quot;font-family: Consolas, &amp;quot;Courier New&amp;quot;, monospace; font-size: 14px; line-height: 19px;&quot;&gt;&lt;div style=&quot;line-height: 19px;&quot;&gt;&lt;div&gt;string[] massiv &lt;span style=&quot;&quot;&gt;=&lt;/span&gt; &lt;span style=&quot;&quot;&gt;new&lt;/span&gt; &lt;span style=&quot;&quot;&gt;string&lt;/span&gt;[&lt;span style=&quot;&quot;&gt;6&lt;/span&gt;];&lt;/div&gt;&lt;div&gt;&lt;span style=&quot;&quot;&gt;int&lt;/span&gt; count &lt;span style=&quot;&quot;&gt;=&lt;/span&gt; &lt;span style=&quot;&quot;&gt;0&lt;/span&gt;;&lt;/div&gt;&lt;div&gt;&lt;span style=&quot;&quot;&gt;int&lt;/span&gt; index&lt;span style=&quot;&quot;&gt;=&lt;/span&gt;&lt;span style=&quot;&quot;&gt;0&lt;/span&gt;;&lt;/div&gt;&lt;div&gt;&lt;span style=&quot;&quot;&gt;string&lt;/span&gt; myword&lt;span style=&quot;&quot;&gt;=&lt;/span&gt;&lt;span style=&quot;&quot;&gt;string&lt;/span&gt;&lt;span style=&quot;&quot;&gt;.&lt;/span&gt;Empty;&lt;/div&gt;&lt;/div&gt;&lt;/div&gt;" style="rounded=0;whiteSpace=wrap;html=1;fontColor=#000000;labelBackgroundColor=#FFFFFF;" parent="1" vertex="1">
          <mxGeometry x="210" y="120" width="350" height="160" as="geometry" />
        </mxCell>
        <mxCell id="rzrUxhMFMnh_a6Wk_pd3-5" style="edgeStyle=orthogonalEdgeStyle;rounded=0;orthogonalLoop=1;jettySize=auto;html=1;" parent="1" source="rzrUxhMFMnh_a6Wk_pd3-4" edge="1">
          <mxGeometry relative="1" as="geometry">
            <mxPoint x="630" y="800" as="targetPoint" />
            <Array as="points">
              <mxPoint x="630" y="660" />
            </Array>
          </mxGeometry>
        </mxCell>
        <mxCell id="rzrUxhMFMnh_a6Wk_pd3-12" style="edgeStyle=orthogonalEdgeStyle;rounded=0;orthogonalLoop=1;jettySize=auto;html=1;entryX=0;entryY=0.5;entryDx=0;entryDy=0;" parent="1" source="rzrUxhMFMnh_a6Wk_pd3-4" target="rzrUxhMFMnh_a6Wk_pd3-8" edge="1">
          <mxGeometry relative="1" as="geometry">
            <mxPoint x="60" y="645" as="targetPoint" />
            <Array as="points">
              <mxPoint x="180" y="660" />
              <mxPoint x="180" y="395" />
            </Array>
          </mxGeometry>
        </mxCell>
        <mxCell id="rzrUxhMFMnh_a6Wk_pd3-4" value="&lt;div style=&quot;font-family: Consolas, &amp;quot;Courier New&amp;quot;, monospace; font-size: 14px; line-height: 19px;&quot;&gt;&lt;div&gt;&lt;br&gt;&lt;/div&gt;&lt;div&gt;&lt;br&gt;&lt;/div&gt;&lt;div&gt;&lt;br&gt;&lt;/div&gt;&lt;div&gt;&amp;nbsp; &amp;nbsp; &lt;span style=&quot;&quot;&gt;if&lt;/span&gt;&amp;nbsp;massiv[i]&lt;span style=&quot;&quot;&gt;.&lt;/span&gt;Length &lt;span style=&quot;&quot;&gt;&amp;lt;=&lt;/span&gt; &lt;span style=&quot;&quot;&gt;3&lt;/span&gt;&lt;/div&gt;&lt;div&gt;&amp;nbsp; &amp;nbsp;&lt;/div&gt;&lt;div&gt;&amp;nbsp; &amp;nbsp; &amp;nbsp; &amp;nbsp;&amp;nbsp;&lt;/div&gt;&lt;div&gt;&amp;nbsp; &amp;nbsp;&amp;nbsp;&lt;/div&gt;&lt;div&gt;&lt;br&gt;&lt;/div&gt;&lt;/div&gt;" style="whiteSpace=wrap;html=1;aspect=fixed;fontColor=#000000;labelBackgroundColor=#FFFFFF;" parent="1" vertex="1">
          <mxGeometry x="255" y="530" width="230" height="230" as="geometry" />
        </mxCell>
        <mxCell id="rzrUxhMFMnh_a6Wk_pd3-7" value="yes" style="text;html=1;strokeColor=none;fillColor=none;align=center;verticalAlign=middle;whiteSpace=wrap;rounded=0;" parent="1" vertex="1">
          <mxGeometry x="550" y="610" width="60" height="30" as="geometry" />
        </mxCell>
        <mxCell id="rzrUxhMFMnh_a6Wk_pd3-10" style="edgeStyle=orthogonalEdgeStyle;rounded=0;orthogonalLoop=1;jettySize=auto;html=1;entryX=0.5;entryY=0;entryDx=0;entryDy=0;" parent="1" source="rzrUxhMFMnh_a6Wk_pd3-8" target="rzrUxhMFMnh_a6Wk_pd3-4" edge="1">
          <mxGeometry relative="1" as="geometry" />
        </mxCell>
        <mxCell id="W-0mPjsqVXlVK-wephLh-1" style="edgeStyle=orthogonalEdgeStyle;rounded=0;orthogonalLoop=1;jettySize=auto;html=1;" edge="1" parent="1" source="rzrUxhMFMnh_a6Wk_pd3-8">
          <mxGeometry relative="1" as="geometry">
            <mxPoint x="510" y="960" as="targetPoint" />
            <Array as="points">
              <mxPoint x="690" y="395" />
              <mxPoint x="690" y="600" />
              <mxPoint x="720" y="600" />
              <mxPoint x="720" y="690" />
              <mxPoint x="730" y="690" />
              <mxPoint x="730" y="960" />
              <mxPoint x="690" y="960" />
            </Array>
          </mxGeometry>
        </mxCell>
        <mxCell id="rzrUxhMFMnh_a6Wk_pd3-8" value="for (&lt;span style=&quot;border-color: var(--border-color); font-family: Consolas, &amp;quot;Courier New&amp;quot;, monospace; font-size: 14px; background-color: rgb(255, 255, 255);&quot;&gt;int&lt;/span&gt;&lt;span style=&quot;font-family: Consolas, &amp;quot;Courier New&amp;quot;, monospace; font-size: 14px; background-color: rgb(255, 255, 255);&quot;&gt;&amp;nbsp;i&amp;nbsp;&lt;/span&gt;&lt;span style=&quot;border-color: var(--border-color); font-family: Consolas, &amp;quot;Courier New&amp;quot;, monospace; font-size: 14px; background-color: rgb(255, 255, 255);&quot;&gt;=&lt;/span&gt;&lt;span style=&quot;font-family: Consolas, &amp;quot;Courier New&amp;quot;, monospace; font-size: 14px; background-color: rgb(255, 255, 255);&quot;&gt;&amp;nbsp;&lt;/span&gt;&lt;span style=&quot;border-color: var(--border-color); font-family: Consolas, &amp;quot;Courier New&amp;quot;, monospace; font-size: 14px; background-color: rgb(255, 255, 255);&quot;&gt;0&lt;/span&gt;&lt;span style=&quot;font-family: Consolas, &amp;quot;Courier New&amp;quot;, monospace; font-size: 14px; background-color: rgb(255, 255, 255);&quot;&gt;; i&amp;nbsp;&lt;/span&gt;&lt;span style=&quot;border-color: var(--border-color); font-family: Consolas, &amp;quot;Courier New&amp;quot;, monospace; font-size: 14px; background-color: rgb(255, 255, 255);&quot;&gt;&amp;lt;&lt;/span&gt;&lt;span style=&quot;font-family: Consolas, &amp;quot;Courier New&amp;quot;, monospace; font-size: 14px; background-color: rgb(255, 255, 255);&quot;&gt;&amp;nbsp;massiv&lt;/span&gt;&lt;span style=&quot;border-color: var(--border-color); font-family: Consolas, &amp;quot;Courier New&amp;quot;, monospace; font-size: 14px; background-color: rgb(255, 255, 255);&quot;&gt;.&lt;/span&gt;&lt;span style=&quot;font-family: Consolas, &amp;quot;Courier New&amp;quot;, monospace; font-size: 14px; background-color: rgb(255, 255, 255);&quot;&gt;Length; i&lt;/span&gt;&lt;span style=&quot;border-color: var(--border-color); font-family: Consolas, &amp;quot;Courier New&amp;quot;, monospace; font-size: 14px; background-color: rgb(255, 255, 255);&quot;&gt;++&lt;/span&gt;" style="rhombus;whiteSpace=wrap;html=1;" parent="1" vertex="1">
          <mxGeometry x="200" y="320" width="370" height="150" as="geometry" />
        </mxCell>
        <mxCell id="rzrUxhMFMnh_a6Wk_pd3-14" style="edgeStyle=orthogonalEdgeStyle;rounded=0;orthogonalLoop=1;jettySize=auto;html=1;" parent="1" source="rzrUxhMFMnh_a6Wk_pd3-11" edge="1">
          <mxGeometry relative="1" as="geometry">
            <mxPoint x="160" y="400" as="targetPoint" />
            <Array as="points">
              <mxPoint x="30" y="840" />
              <mxPoint x="30" y="400" />
            </Array>
          </mxGeometry>
        </mxCell>
        <mxCell id="rzrUxhMFMnh_a6Wk_pd3-11" value="count&lt;span style=&quot;border-color: var(--border-color); font-family: Consolas, &amp;quot;Courier New&amp;quot;, monospace; font-size: 14px; background-color: rgb(255, 255, 255);&quot;&gt;++&lt;/span&gt;&lt;span style=&quot;font-family: Consolas, &amp;quot;Courier New&amp;quot;, monospace; font-size: 14px; background-color: rgb(255, 255, 255);&quot;&gt;;&lt;/span&gt;" style="whiteSpace=wrap;html=1;aspect=fixed;" parent="1" vertex="1">
          <mxGeometry x="590" y="800" width="80" height="80" as="geometry" />
        </mxCell>
        <mxCell id="rzrUxhMFMnh_a6Wk_pd3-13" value="no" style="text;html=1;strokeColor=none;fillColor=none;align=center;verticalAlign=middle;whiteSpace=wrap;rounded=0;" parent="1" vertex="1">
          <mxGeometry x="180" y="620" width="60" height="30" as="geometry" />
        </mxCell>
        <mxCell id="W-0mPjsqVXlVK-wephLh-2" value="final ( i = massiv.length" style="text;html=1;strokeColor=none;fillColor=none;align=center;verticalAlign=middle;whiteSpace=wrap;rounded=0;" vertex="1" parent="1">
          <mxGeometry x="580" y="360" width="140" height="30" as="geometry" />
        </mxCell>
        <mxCell id="W-0mPjsqVXlVK-wephLh-5" style="edgeStyle=orthogonalEdgeStyle;rounded=0;orthogonalLoop=1;jettySize=auto;html=1;entryX=0.5;entryY=0;entryDx=0;entryDy=0;" edge="1" parent="1" source="W-0mPjsqVXlVK-wephLh-3" target="W-0mPjsqVXlVK-wephLh-4">
          <mxGeometry relative="1" as="geometry" />
        </mxCell>
        <mxCell id="W-0mPjsqVXlVK-wephLh-3" value="&lt;div style=&quot;font-family: Consolas, &amp;quot;Courier New&amp;quot;, monospace; font-size: 14px; line-height: 19px;&quot;&gt;string[] shortmassiv &lt;span style=&quot;&quot;&gt;=&lt;/span&gt; &lt;span style=&quot;&quot;&gt;new&lt;/span&gt; &lt;span style=&quot;&quot;&gt;string&lt;/span&gt;[count];&lt;/div&gt;" style="rounded=0;whiteSpace=wrap;html=1;labelBackgroundColor=default;fontColor=#000000;" vertex="1" parent="1">
          <mxGeometry x="160" y="930" width="350" height="60" as="geometry" />
        </mxCell>
        <mxCell id="W-0mPjsqVXlVK-wephLh-8" style="edgeStyle=orthogonalEdgeStyle;rounded=0;orthogonalLoop=1;jettySize=auto;html=1;entryX=0.5;entryY=0;entryDx=0;entryDy=0;" edge="1" parent="1" source="W-0mPjsqVXlVK-wephLh-4" target="W-0mPjsqVXlVK-wephLh-6">
          <mxGeometry relative="1" as="geometry" />
        </mxCell>
        <mxCell id="W-0mPjsqVXlVK-wephLh-4" value="&lt;div style=&quot;font-family: Consolas, &amp;quot;Courier New&amp;quot;, monospace; font-size: 14px; line-height: 19px;&quot;&gt;&lt;div&gt;for &lt;span style=&quot;&quot;&gt;int&lt;/span&gt; i &lt;span style=&quot;&quot;&gt;=&lt;/span&gt; &lt;span style=&quot;&quot;&gt;0&lt;/span&gt;; i &lt;span style=&quot;&quot;&gt;&amp;lt;&lt;/span&gt; massiv&lt;span style=&quot;&quot;&gt;.&lt;/span&gt;Length; i&lt;span style=&quot;&quot;&gt;++&lt;/span&gt;&lt;/div&gt;&lt;div&gt;&lt;br&gt;&lt;/div&gt;&lt;/div&gt;" style="rhombus;whiteSpace=wrap;html=1;labelBackgroundColor=#FFFFFF;fontColor=#000000;" vertex="1" parent="1">
          <mxGeometry x="170" y="1040" width="360" height="190" as="geometry" />
        </mxCell>
        <mxCell id="W-0mPjsqVXlVK-wephLh-7" style="edgeStyle=orthogonalEdgeStyle;rounded=0;orthogonalLoop=1;jettySize=auto;html=1;" edge="1" parent="1" source="W-0mPjsqVXlVK-wephLh-6">
          <mxGeometry relative="1" as="geometry">
            <mxPoint x="500" y="1710" as="targetPoint" />
            <Array as="points">
              <mxPoint x="680" y="1430" />
              <mxPoint x="680" y="1710" />
            </Array>
          </mxGeometry>
        </mxCell>
        <mxCell id="W-0mPjsqVXlVK-wephLh-12" style="edgeStyle=orthogonalEdgeStyle;rounded=0;orthogonalLoop=1;jettySize=auto;html=1;entryX=0.139;entryY=0.66;entryDx=0;entryDy=0;entryPerimeter=0;" edge="1" parent="1" source="W-0mPjsqVXlVK-wephLh-6" target="W-0mPjsqVXlVK-wephLh-4">
          <mxGeometry relative="1" as="geometry">
            <mxPoint x="160" y="1170" as="targetPoint" />
            <Array as="points">
              <mxPoint x="110" y="1430" />
              <mxPoint x="110" y="1170" />
              <mxPoint x="220" y="1170" />
            </Array>
          </mxGeometry>
        </mxCell>
        <mxCell id="W-0mPjsqVXlVK-wephLh-6" value="&lt;div style=&quot;border-color: var(--border-color); font-family: Consolas, &amp;quot;Courier New&amp;quot;, monospace; font-size: 14px; background-color: rgb(255, 255, 255);&quot;&gt;&amp;nbsp;if&amp;nbsp;massiv[i]&lt;span style=&quot;border-color: var(--border-color);&quot;&gt;.&lt;/span&gt;Length&amp;nbsp;&lt;span style=&quot;border-color: var(--border-color);&quot;&gt;&amp;lt;=&lt;/span&gt;&amp;nbsp;&lt;span style=&quot;border-color: var(--border-color);&quot;&gt;3&lt;/span&gt;&lt;/div&gt;&lt;div style=&quot;border-color: var(--border-color); font-family: Consolas, &amp;quot;Courier New&amp;quot;, monospace; font-size: 14px; background-color: rgb(255, 255, 255);&quot;&gt;&amp;nbsp; &amp;nbsp;&amp;nbsp;&lt;/div&gt;&lt;div style=&quot;border-color: var(--border-color); font-family: Consolas, &amp;quot;Courier New&amp;quot;, monospace; font-size: 14px; background-color: rgb(255, 255, 255);&quot;&gt;&amp;nbsp; &amp;nbsp;&lt;br&gt;&lt;/div&gt;" style="whiteSpace=wrap;html=1;aspect=fixed;" vertex="1" parent="1">
          <mxGeometry x="210" y="1290" width="280" height="280" as="geometry" />
        </mxCell>
        <mxCell id="W-0mPjsqVXlVK-wephLh-11" style="edgeStyle=orthogonalEdgeStyle;rounded=0;orthogonalLoop=1;jettySize=auto;html=1;entryX=0;entryY=0.5;entryDx=0;entryDy=0;" edge="1" parent="1" source="W-0mPjsqVXlVK-wephLh-9" target="W-0mPjsqVXlVK-wephLh-4">
          <mxGeometry relative="1" as="geometry">
            <mxPoint x="160" y="1130" as="targetPoint" />
            <Array as="points">
              <mxPoint x="40" y="1710" />
              <mxPoint x="40" y="1130" />
              <mxPoint x="170" y="1130" />
            </Array>
          </mxGeometry>
        </mxCell>
        <mxCell id="W-0mPjsqVXlVK-wephLh-15" style="edgeStyle=orthogonalEdgeStyle;rounded=0;orthogonalLoop=1;jettySize=auto;html=1;entryX=0.5;entryY=0;entryDx=0;entryDy=0;" edge="1" parent="1" source="W-0mPjsqVXlVK-wephLh-9" target="W-0mPjsqVXlVK-wephLh-14">
          <mxGeometry relative="1" as="geometry" />
        </mxCell>
        <mxCell id="W-0mPjsqVXlVK-wephLh-9" value="&lt;div style=&quot;border-color: var(--border-color); font-family: Consolas, &amp;quot;Courier New&amp;quot;, monospace; font-size: 14px; background-color: rgb(255, 255, 255);&quot;&gt;&amp;nbsp;shortmassiv[index]&amp;nbsp;=&amp;nbsp;massiv[i];&lt;/div&gt;&lt;div style=&quot;border-color: var(--border-color); font-family: Consolas, &amp;quot;Courier New&amp;quot;, monospace; font-size: 14px; background-color: rgb(255, 255, 255);&quot;&gt;&amp;nbsp; &amp;nbsp; index&lt;span style=&quot;border-color: var(--border-color);&quot;&gt;++&lt;/span&gt;;&lt;/div&gt;" style="rounded=0;whiteSpace=wrap;html=1;" vertex="1" parent="1">
          <mxGeometry x="220" y="1680" width="280" height="60" as="geometry" />
        </mxCell>
        <mxCell id="W-0mPjsqVXlVK-wephLh-10" value="yes" style="text;html=1;align=center;verticalAlign=middle;resizable=0;points=[];autosize=1;strokeColor=none;fillColor=none;" vertex="1" parent="1">
          <mxGeometry x="540" y="1395" width="40" height="30" as="geometry" />
        </mxCell>
        <mxCell id="W-0mPjsqVXlVK-wephLh-13" value="no" style="text;html=1;align=center;verticalAlign=middle;resizable=0;points=[];autosize=1;strokeColor=none;fillColor=none;" vertex="1" parent="1">
          <mxGeometry x="120" y="1385" width="40" height="30" as="geometry" />
        </mxCell>
        <mxCell id="W-0mPjsqVXlVK-wephLh-17" style="edgeStyle=orthogonalEdgeStyle;rounded=0;orthogonalLoop=1;jettySize=auto;html=1;" edge="1" parent="1" source="W-0mPjsqVXlVK-wephLh-14" target="W-0mPjsqVXlVK-wephLh-16">
          <mxGeometry relative="1" as="geometry" />
        </mxCell>
        <mxCell id="W-0mPjsqVXlVK-wephLh-14" value="print ( shortmassiv)" style="rounded=1;whiteSpace=wrap;html=1;" vertex="1" parent="1">
          <mxGeometry x="130" y="1840" width="430" height="60" as="geometry" />
        </mxCell>
        <mxCell id="W-0mPjsqVXlVK-wephLh-16" value="end" style="rounded=1;whiteSpace=wrap;html=1;" vertex="1" parent="1">
          <mxGeometry x="290" y="1960" width="120" height="60" as="geometry" />
        </mxCell>
      </root>
    </mxGraphModel>
  </diagram>
</mxfile>
